<mxfile host="app.diagrams.net" modified="2023-07-03T02:02:07.587Z" agent="Mozilla/5.0 (Macintosh; Intel Mac OS X 10_15_7) AppleWebKit/537.36 (KHTML, like Gecko) Chrome/114.0.0.0 Safari/537.36" version="21.5.2" etag="lc3WA8_-Xye76wojeI6Z" type="github">
  <diagram name="Page-1" id="_x0aR9AOAQ8iJnW2xYTP">
    <mxGraphModel>
      <root>
        <mxCell id="0" />
        <mxCell id="1" parent="0" />
      </root>
    </mxGraphModel>
  </diagram>
</mxfile>
